<svg width="50" height="50" viewBox="0 0 50 50" fill="none" xmlns="http://www.w3.org/2000/svg">
<path d="M37.2591 6.25L36.9888 7.64963C36.5708 10.3021 36.7221 11.061 37.8682 12.0454L38.9747 12.9546L37.8286 18.0305C37.1438 21.0588 36.3041 23.5968 35.7707 24.4308C35.313 25.1503 34.7796 26.2099 34.6642 26.7791C34.4732 27.4592 33.8245 28.1429 32.8334 28.7478C31.9576 29.2418 30.2385 30.5663 29.0203 31.6294C28.0472 32.4993 27.3769 33.0326 27.0129 33.2617L25.8235 34.196C25.4415 34.8046 25.2253 35.295 25.1424 35.6672C25.0595 36.0503 25.1063 36.3044 25.2289 36.4905C25.3478 36.6695 25.5532 36.7948 25.8343 36.8736C26.1671 36.951 26.5097 36.9788 26.8507 36.9559C27.6222 36.9035 28.3858 36.7691 29.1284 36.555C29.3807 36.487 29.5789 36.4225 29.7519 36.3653C30.0186 36.0395 30.6349 35.4238 31.7269 34.3535C34.6246 31.5149 35.731 29.9613 34.5885 30.3802C34.1669 30.5305 34.3579 30.1511 35.0823 29.3922C36.6104 27.9138 37.4862 25.6801 39.317 18.6748C40.7659 13.1443 40.7659 13.0656 41.8327 13.0656C42.3336 13.0656 43.75 13.1515 43.75 13.1515V6.25H40.4992H37.2591ZM24.4216 18.0806C23.3692 18.0735 21.1058 19.6664 14.3303 25.1611C14.0383 25.8519 14.0131 26.328 14.1464 26.6359C14.2329 26.8471 14.3915 26.9938 14.6114 27.1012C14.8276 27.2086 15.1087 27.2731 15.4187 27.2981C16.035 27.3518 16.763 27.2552 17.3504 27.1406L17.7469 27.0511C17.8826 26.8704 18.0608 26.7254 18.2659 26.6287C18.6839 26.3996 20.4391 24.8103 22.1943 23.1064C25.2829 19.9993 26.0073 18.5961 24.7495 18.1415C24.6463 18.1007 24.5326 18.08 24.4216 18.0806ZM32.336 20.2391C31.4098 20.2642 29.7411 21.3309 26.8831 23.5968C25.4487 24.753 24.5405 25.3759 24.0539 25.5047L22.1654 26.9867C21.4554 28.2753 21.3509 29.0736 21.5383 29.5139C21.5852 29.6225 21.6533 29.7208 21.7387 29.8031C21.8241 29.8855 21.925 29.9502 22.0357 29.9936C22.311 30.1015 22.6046 30.1562 22.9006 30.1546C23.608 30.1471 24.3112 30.0448 24.991 29.8504C25.3453 29.7559 25.6952 29.6461 26.0398 29.521L26.1443 29.4781L26.3353 29.3779C26.6957 28.9161 27.5246 28.0462 28.5626 27.044C31.8423 23.9011 33.5181 21.6674 33.1758 20.8333C33.0208 20.4288 32.7541 20.2248 32.336 20.2391ZM23.5998 24.1051C23.3331 24.1337 22.7349 24.5919 21.6573 25.5298C20.1003 26.8972 18.4028 27.6847 17.8154 27.3339C17.6788 27.3645 17.5419 27.3932 17.4045 27.4198C16.8062 27.5379 16.0602 27.6346 15.3934 27.5809C15.0793 27.562 14.7714 27.4855 14.4852 27.3554C14.2153 27.2328 13.9999 27.0164 13.8797 26.7468C13.7464 26.4247 13.7464 26.0238 13.8978 25.5119L11.5551 27.4234L6.2536 31.7798V38.8424L23.6251 25.2506C23.6217 25.1018 23.6411 24.9533 23.6827 24.8103C23.8161 24.3306 23.8089 24.0872 23.5998 24.1087V24.1051ZM31.0746 26.3925C30.8115 26.3925 30.3718 26.7612 29.669 27.5021C28.714 28.5152 27.2111 29.496 26.4146 29.6964L26.292 29.7609C26.1613 29.8145 26.0291 29.8646 25.8956 29.9112C25.6794 29.9828 25.3982 30.0687 25.0739 30.1546C24.4252 30.33 23.6179 30.4911 22.897 30.4732C22.5572 30.4728 22.2207 30.4072 21.9059 30.2799C21.6093 30.1585 21.3716 29.9275 21.2428 29.6356C21.0338 29.138 21.1167 28.44 21.5744 27.4485L6.25 39.4366V43.75H12.9823L27.2615 32.6103C27.6327 32.2022 28.1914 31.6438 28.9446 30.9457C30.9629 29.0879 31.4206 28.4472 31.4206 27.4986C31.4206 26.7612 31.3377 26.3889 31.0746 26.3889V26.3925ZM34.4732 33.3727L33.2514 34.5826C32.5667 35.2269 31.3449 36.0216 30.5088 36.3617L30.343 36.4333L30.3322 36.4512L30.2961 36.487C30.2637 36.512 30.2493 36.5156 30.2241 36.5263C29.8903 36.6518 29.5512 36.7629 29.2077 36.8592C28.4441 37.08 27.6586 37.218 26.8651 37.2709C26.4899 37.2948 26.1132 37.2622 25.7478 37.1743C25.4307 37.1049 25.1508 36.9213 24.9622 36.6588C24.7892 36.3939 24.7387 36.0395 24.836 35.6028C24.9134 35.2919 25.0284 34.9914 25.1784 34.7079L13.6563 43.75H28.9807L30.8115 41.6667C33.3271 38.7529 34.4732 36.6695 34.4732 34.8869V33.3727Z" fill="#7572D5"/>
</svg>
